<svg id="Слой_1" data-name="Слой 1" xmlns="http://www.w3.org/2000/svg" width="20" height="18" viewBox="0 0 20 18"><defs><style>.cls-1{fill:#005777;}</style></defs><title>mail</title><path class="cls-1" d="M18.4,3.2H1.6A1.6,1.6,0,0,0,0,4.8V15.2a1.6,1.6,0,0,0,1.6,1.6H18.4A1.6,1.6,0,0,0,20,15.2V4.8A1.6,1.6,0,0,0,18.4,3.2Zm0,.8.18,0L10,11.08,1.45,4,1.6,4Zm.8,11.2a.8.8,0,0,1-.8.8H1.6a.8.8,0,0,1-.8-.8V4.8a.79.79,0,0,1,0-.25l8.9,7.35a.4.4,0,0,0,.51,0l8.91-7.33a.79.79,0,0,1,0,.22Z" transform="translate(0 -1)"/></svg>
