<svg id="Слой_1" data-name="Слой 1" xmlns="http://www.w3.org/2000/svg" width="20" height="20" viewBox="0 0 20 20"><defs><style>.cls-1{fill:#d5a2a2;}</style></defs><title>errorstext</title><path class="cls-1" d="M25,15A10,10,0,1,0,35,25,10,10,0,0,0,25,15Zm0,19.2A9.2,9.2,0,1,1,34.2,25,9.2,9.2,0,0,1,25,34.2Z" transform="translate(-15 -15)"/><path class="cls-1" d="M28.88,21.12a.4.4,0,0,0-.57,0L25,24.43l-3.32-3.32a.4.4,0,1,0-.57.57L24.43,25l-3.32,3.32a.4.4,0,1,0,.57.57L25,25.57l3.32,3.32a.4.4,0,1,0,.57-.57L25.57,25l3.32-3.32A.4.4,0,0,0,28.88,21.12Z" transform="translate(-15 -15)"/></svg>