<svg id="Слой_1" data-name="Слой 1" xmlns="http://www.w3.org/2000/svg" width="35" height="35" viewBox="0 0 35 35"><defs><style>.cls-1{fill:#e0923e;}.cls-2{fill:#005777;}</style></defs><title>green</title><path class="cls-1" d="M45.92,96.62a.7.7,0,0,1-.49-.21l-3.68-3.68a.7.7,0,0,1,1-1l3.19,3.19,8.35-8.35a.7.7,0,1,1,1,1l-8.84,8.84A.7.7,0,0,1,45.92,96.62Z" transform="translate(-31 -74)"/><path class="cls-2" d="M48.5,75.4A16.1,16.1,0,1,1,32.4,91.5,16.12,16.12,0,0,1,48.5,75.4m0-1.4A17.5,17.5,0,1,0,66,91.5,17.5,17.5,0,0,0,48.5,74Z" transform="translate(-31 -74)"/></svg>