<svg id="Слой_1" data-name="Слой 1" xmlns="http://www.w3.org/2000/svg" width="35.01" height="35" viewBox="0 0 35.01 35"><defs><style>.cls-1{fill:#005777;}</style></defs><title>logout</title><path class="cls-1" d="M35,17.5a.68.68,0,0,0,0-.07.69.69,0,0,0,0-.17v-.07a.69.69,0,0,0-.14-.21l-7-7a.71.71,0,0,0-1,1h0l5.81,5.81H15.4a.7.7,0,0,0,0,1.4H32.61L26.8,24a.71.71,0,0,0,1,1l7-7h0a.69.69,0,0,0,.14-.21h0A.69.69,0,0,0,35,17.5Z" transform="translate(0 0)"/><path class="cls-1" d="M20.3,33.6H3.5a2,2,0,0,1-2.1-2.1V3.5A2,2,0,0,1,3.29,1.4h17a.7.7,0,1,0,0-1.4H3.5A3.38,3.38,0,0,0,0,3.26q0,.12,0,.24v28A3.38,3.38,0,0,0,3.26,35h17a.7.7,0,0,0,0-1.4Z" transform="translate(0 0)"/></svg>