<svg id="Слой_1" data-name="Слой 1" xmlns="http://www.w3.org/2000/svg" width="20" height="18" viewBox="0 0 20 18"><defs><style>.cls-1{fill:#005777;}</style></defs><title>password</title><path class="cls-1" d="M18.4,7H15.2V5.4A4.4,4.4,0,0,0,10.8,1H9.2A4.4,4.4,0,0,0,4.8,5.4V7H1.6A1.6,1.6,0,0,0,0,8.6v8.8A1.6,1.6,0,0,0,1.6,19H18.4A1.6,1.6,0,0,0,20,17.4V8.6A1.6,1.6,0,0,0,18.4,7ZM5.6,5.4A3.6,3.6,0,0,1,9.2,1.8h1.6a3.6,3.6,0,0,1,3.6,3.6V7H5.6Zm13.6,12a.8.8,0,0,1-.8.8H1.6a.8.8,0,0,1-.8-.8V8.6a.8.8,0,0,1,.8-.8H18.4a.8.8,0,0,1,.8.8Z" transform="translate(0 -1)"/><path class="cls-1" d="M10,10.6a.4.4,0,0,0-.4.4v4a.4.4,0,0,0,.8,0V11A.4.4,0,0,0,10,10.6Z" transform="translate(0 -1)"/></svg>