<svg id="Слой_1" data-name="Слой 1" xmlns="http://www.w3.org/2000/svg" width="35" height="35" viewBox="0 0 35 35"><defs><style>.cls-1{fill:#005777;}.cls-2{fill:#e0923e;}</style></defs><title>rad</title><path class="cls-1" d="M25,8.9A16.1,16.1,0,1,1,8.9,25,16.1,16.1,0,0,1,25,8.9m0-1.4A17.5,17.5,0,1,0,42.5,25,17.5,17.5,0,0,0,25,7.5Z" transform="translate(-7.5 -7.5)"/><path class="cls-2" d="M26,25l5.81-5.81a.7.7,0,0,0-1-1L25,24l-5.81-5.81a.7.7,0,0,0-1,1L24,25l-5.81,5.81a.7.7,0,1,0,1,1L25,26l5.81,5.81a.7.7,0,1,0,1-1Z" transform="translate(-7.5 -7.5)"/></svg>