<svg id="Слой_1" data-name="Слой 1" xmlns="http://www.w3.org/2000/svg" width="35" height="35" viewBox="0 0 35 35"><defs><style>.cls-1{fill:#005777;}.cls-2{fill:#e0923e;}</style></defs><title>yellow</title><path class="cls-1" d="M25,8.9A16.1,16.1,0,1,1,8.9,25,16.1,16.1,0,0,1,25,8.9m0-1.4A17.5,17.5,0,1,0,42.5,25,17.5,17.5,0,0,0,25,7.5Z" transform="translate(-7.5 -7.5)"/><path class="cls-2" d="M25,27.8a.7.7,0,0,1-.7-.7V18.7a.7.7,0,0,1,1.4,0v8.4A.7.7,0,0,1,25,27.8Z" transform="translate(-7.5 -7.5)"/><path class="cls-2" d="M25,32a.7.7,0,0,1-.7-.7V29.9a.7.7,0,0,1,1.4,0v1.4A.7.7,0,0,1,25,32Z" transform="translate(-7.5 -7.5)"/></svg>