<svg id="Capa_1" data-name="Capa 1" xmlns="http://www.w3.org/2000/svg" width="35" height="35" viewBox="0 0 35 35"><defs><style>.cls-1{fill:#ffffff;}</style></defs><title>box-blue</title><path class="cls-1" d="M37.66,13.47,20.65,5a.52.52,0,0,0-.45,0L3.32,13.42a.57.57,0,0,0-.34.26.51.51,0,0,0,0,.23h0v18a.55.55,0,0,0,.28.45l16.94,8.45a.5.5,0,0,0,.57,0L37.66,32.4a.47.47,0,0,0,.28-.45v-18A.47.47,0,0,0,37.66,13.47ZM20.44,6l15.82,7.91L20.44,21.8,4.64,13.91ZM4,14.76l15.92,7.95V39.59L4,31.63ZM21,39.59V22.71l15.92-7.93V31.63Z" transform="translate(-2.94 -4.91)"/></svg>