<svg data-name="Avatar" xmlns="http://www.w3.org/2000/svg" viewBox="0 0 100 100"><defs><style>.cls-1{fill:#5069a1;}.cls-2{fill:#f0f0f0;}</style></defs><title>Avatar</title><path class="cls-1" d="M100,50A50,50,0,1,0,18.06,88.46c14.59-1.39,17.94-6,18.71-8,0.66-2.27,1.05-6.17.24-12.85a53.52,53.52,0,0,1-1.86-8.37S32.82,58.81,32.2,57a19.77,19.77,0,0,0-3.49-8.75s-1.39-4.49,2.09-5.11c0,0-.93-1.7.23-6.58a3.79,3.79,0,0,0-.85-3.25s-1.55-1.39,3.87-9.14c0,0-1.7-.39.7-2.25A11.13,11.13,0,0,0,37,19.54s0.93,1.24,1.24,0c0,0,.39-2.4,1-2.09s0.7,1.42,1.47,0c0,0,.77.65,2.32-2,0,0,.85,1.08,1.08.77,0,0,1.47-2.63,1.78-1.39,0,0,.08,2.56,3.18-1.7,0,0,.93-0.46.85,2.25a3.33,3.33,0,0,0,3.56-2.28s0.7-.12.85,1.27a2.73,2.73,0,0,0,1.7-1.27s0.46-.43.62,0.81c0,0,.77.62,1.32-1.78,0,0-.08-2.25,2,4.11,0,0-.39-1.24.39-1.16,0,0,.19-0.55.67,1.67a1.78,1.78,0,0,1,.18-1.21c0.43-.57,1.7,2.59,1.91,4.06,0-.72.21-1.75,0.88-1.35,1.1,0.66.76,2.09,1.44,3.75a0.87,0.87,0,0,1,.11-0.65c0.54-.7,1,0.54,1.16,1.47s0.08-.15.62-0.15a3.77,3.77,0,0,1,1,2.32s0.93-1,1.08,2.71c0,0,2.48,2.4-.62,15,0,0,5.42.31,1.94,7.44,0,0-2.56,4.73-3,7.13,0,0-1.24,3-2.87,1a33.46,33.46,0,0,1-1.55,9.3s-0.64,7.72.1,11.93a4.65,4.65,0,0,0,.16.62l0,0a1.59,1.59,0,0,0,.09.2C64.53,82,67.83,86,81.26,89A49.89,49.89,0,0,0,100,50Z"/><path class="cls-2" d="M63.72,80.36a1.59,1.59,0,0,1-.09-0.2l0,0a4.65,4.65,0,0,1-.16-0.62c-0.74-4.22-.1-11.93-0.1-11.93a33.46,33.46,0,0,0,1.55-9.3c1.63,2,2.87-1,2.87-1,0.46-2.4,3-7.13,3-7.13,3.49-7.13-1.94-7.44-1.94-7.44,3.1-12.63.62-15,.62-15C69.31,24,68.38,25,68.38,25a3.77,3.77,0,0,0-1-2.32c-0.54,0-.46,1.08-0.62.15s-0.62-2.17-1.16-1.47a0.87,0.87,0,0,0-.11.65c-0.68-1.66-.34-3.09-1.44-3.75-0.67-.4-0.85.64-0.88,1.35-0.2-1.48-1.48-4.63-1.91-4.06a1.78,1.78,0,0,0-.18,1.21C60.59,14.5,60.4,15,60.4,15,59.63,15,60,16.21,60,16.21c-2.09-6.35-2-4.11-2-4.11-0.54,2.4-1.32,1.78-1.32,1.78-0.15-1.24-.62-0.81-0.62-0.81a2.73,2.73,0,0,1-1.7,1.27c-0.15-1.39-.85-1.27-0.85-1.27a3.33,3.33,0,0,1-3.56,2.28c0.08-2.71-.85-2.25-0.85-2.25-3.1,4.26-3.18,1.7-3.18,1.7-0.31-1.24-1.78,1.39-1.78,1.39-0.23.31-1.08-.77-1.08-0.77-1.55,2.63-2.32,2-2.32,2-0.77,1.44-.85.34-1.47,0s-1,2.09-1,2.09c-0.31,1.24-1.24,0-1.24,0a11.13,11.13,0,0,1-2.25,2.4c-2.4,1.86-.7,2.25-0.7,2.25-5.42,7.75-3.87,9.14-3.87,9.14A3.79,3.79,0,0,1,31,36.58c-1.16,4.88-.23,6.58-0.23,6.58-3.49.62-2.09,5.11-2.09,5.11A19.77,19.77,0,0,1,32.2,57c0.62,1.78,2.94,2.25,2.94,2.25A53.52,53.52,0,0,0,37,67.65c0.81,6.68.42,10.57-.24,12.85-0.77,2-4.12,6.58-18.71,8h0c0.34,0.29.7,0.56,1,.83l0.72,0.57,1,0.75,0.8,0.57,1,0.69,0.86,0.55,1,0.64,0.92,0.53,1.05,0.58,1,0.5,1,0.52,1.1,0.5,1,0.43q1,0.43,2.05.81l0.79,0.27c0.47,0.16.93,0.33,1.4,0.48L35.86,98l1.31,0.37,1,0.24,1.31,0.3,1,0.2,1.35,0.24,1,0.15,1.43,0.18,0.94,0.11c0.53,0.05,1.07.09,1.6,0.12l0.8,0.05c0.81,0,1.62.06,2.43,0.06s1.61,0,2.4-.06l0.8-.05,1.57-.12,1-.1,1.38-.18,1-.15,1.29-.23,1-.21,1.21-.28,1.07-.26L63.82,98q1.23-.35,2.43-0.76l0.65-.22c0.47-.17.93-0.35,1.39-0.53L69,96.26l1.39-.6L71,95.39l1.42-.68,0.49-.25c0.5-.26,1-0.52,1.49-0.8l0.23-.13A50.22,50.22,0,0,0,81.26,89h0C67.83,86,64.53,82,63.72,80.36Z"/></svg>