<svg id="Слой_1" data-name="Слой 1" xmlns="http://www.w3.org/2000/svg" width="887" height="700" viewBox="0 0 887 700"><defs><style>.cls-1,.cls-2,.cls-3,.cls-8,.cls-9{fill:#005777;}.cls-2{opacity:0.05;}.cls-3{opacity:0.03;}.cls-4{opacity:0.3;}.cls-5,.cls-8{opacity:0.2;}.cls-6{opacity:0.4;}.cls-7{opacity:0.07;}.cls-9{opacity:0.1;}.cls-10{fill:#e0923e;}.cls-11{fill:#fff;}.cls-12{fill:none;stroke:#005777;stroke-linecap:round;stroke-linejoin:round;stroke-width:2px;}</style></defs><title>bgimg</title><ellipse class="cls-1" cx="99.4" cy="276.97" rx="21.41" ry="15.87"/><polygon class="cls-2" points="701 470.5 599.65 383 523.73 383 431.76 440.34 279.94 469.19 195.27 411.13 128.6 348.38 39.06 387.33 0 392.5 0 625.92 70.69 662.13 209.87 700 244.9 667.54 479.94 592.89 759 649.5 835 543.5 701 470.5"/><polygon class="cls-3" points="33.22 360.28 141.25 332.15 192.35 371.82 268.26 434.93 333.95 443.59 423 420.87 491.13 379.75 558.77 361.36 614.25 361.36 659.99 421.95 735.9 385.16 721.79 306.18 682.86 267.23 405.49 246.68 395.27 183.93 371.91 89.8 157.31 83.31 6.95 162.65 0 167.02 0 329.66 33.22 360.28"/><g class="cls-4"><ellipse class="cls-1" cx="99.65" cy="276.79" rx="28.95" ry="21.46"/></g><ellipse class="cls-1" cx="321.79" cy="146.78" rx="21.41" ry="15.87"/><g class="cls-4"><ellipse class="cls-1" cx="322.03" cy="146.6" rx="28.95" ry="21.46"/></g><ellipse class="cls-1" cx="607.43" cy="191.86" rx="21.41" ry="15.87"/><g class="cls-4"><ellipse class="cls-1" cx="607.19" cy="191.68" rx="28.95" ry="21.46"/></g><g class="cls-5"><polygon class="cls-1" points="637 470.37 523.5 456.35 445.97 405.36 329.02 405.36 191.43 444.69 84.23 398.22 73.04 343.17 94.67 275.77 104.14 277.44 82.94 343.48 93.16 393.74 192.29 436.71 327.21 398.14 449.67 398.14 527.86 449.58 636.25 462.96 766.51 431.5 769.52 438.36 637 470.37"/></g><g class="cls-6"><polygon class="cls-1" points="778.72 438.54 659.52 438.54 659.07 438.47 564.87 425.1 525.03 343.74 461.92 337.63 308.07 375.16 237.71 366.72 221.15 325.8 292.24 294.42 357.46 305.04 443.7 294.97 474.88 251.72 425.43 216.74 374.84 216.74 315.18 259.15 198.67 246.92 198.67 190.64 235.85 154.67 320.89 142.88 322.68 149.96 241.3 161.25 208.41 193.08 208.41 240.66 311.85 251.52 370.93 209.53 429.33 209.53 486.94 250.29 450 301.53 357.16 312.38 356.27 312.23 293.91 302.08 232.65 329.12 245.28 360.32 307.28 367.76 460.98 330.27 532.16 337.15 572.13 418.79 660.45 431.32 778.72 431.32 778.72 438.54"/></g><g class="cls-5"><polygon class="cls-1" points="766.26 438.29 656.98 406.92 623.7 375.32 631.15 340.83 597.56 333.43 546.61 277.55 566.01 231.78 566.38 231.36 603.36 189.52 611.5 193.48 574.89 234.89 557.3 276.39 603.68 327.26 642.11 335.72 633.98 373.36 663 400.91 769.77 431.57 766.26 438.29"/></g><g class="cls-7"><polygon class="cls-1" points="400.13 47.6 433.22 224.32 721.79 255.33 839.06 162.65 859.5 27.41 671.66 0 455.12 17.31 400.13 47.6"/></g><ellipse class="cls-8" cx="798" cy="439" rx="60" ry="28.88"/><ellipse class="cls-9" cx="798" cy="439" rx="75" ry="36.09"/><ellipse class="cls-2" cx="797" cy="439" rx="90" ry="43.31"/><polygon class="cls-10" points="748.5 380.7 797 356.4 845.5 380.7 845.5 432.2 797 456.4 748.5 432.2 748.5 380.7"/><polygon class="cls-11" points="748.5 380.7 797 405 845 381.5 845.5 432.2 797 456.4 748.5 432.2 748.5 380.7"/><path class="cls-1" d="M1201,805.4a1.5,1.5,0,0,1-.67-.16l-48.5-24.2a1.5,1.5,0,0,1-.83-1.34V728.2a1.5,1.5,0,0,1,.83-1.34l48.5-24.3a1.5,1.5,0,0,1,1.34,0l48.5,24.3a1.5,1.5,0,0,1,.83,1.34v51.5a1.5,1.5,0,0,1-.83,1.34l-48.5,24.2A1.5,1.5,0,0,1,1201,805.4Zm-47-26.63,47,23.45,47-23.45V729.13l-47-23.55-47,23.55Z" transform="translate(-404 -347.5)"/><path class="cls-1" d="M1201,753.9a1.5,1.5,0,0,1-.67-.16l-48.5-24.2a1.5,1.5,0,0,1,1.34-2.68L1201,750.72l47.83-23.87a1.5,1.5,0,0,1,1.34,2.68l-48.5,24.2A1.5,1.5,0,0,1,1201,753.9Z" transform="translate(-404 -347.5)"/><path class="cls-1" d="M1201,805.4a1.5,1.5,0,0,1-1.5-1.5V752.4a1.5,1.5,0,0,1,3,0v51.5A1.5,1.5,0,0,1,1201,805.4Z" transform="translate(-404 -347.5)"/><path class="cls-1" d="M1201,539.7a60.08,60.08,0,0,0-60,60,54.07,54.07,0,0,0,1.1,11.26,19.33,19.33,0,0,0,.39,2,63.3,63.3,0,0,0,4,11.81c6.46,15.2,20.63,38.58,51.81,63.62a4.27,4.27,0,0,0,5.35,0c31.18-25,45.35-48.43,51.81-63.62a61.42,61.42,0,0,0,4-11.81c.24-1.1.39-1.81.39-2A59.83,59.83,0,0,0,1201,539.7Zm29.61,60.63A29.61,29.61,0,1,1,1201,570.72,29.67,29.67,0,0,1,1230.61,600.33Z" transform="translate(-404 -347.5)"/><path class="cls-10" d="M616.16,879.88a.75.75,0,0,1,.23.57.7.7,0,0,1-.23.55.85.85,0,0,1-.58.2H610v16.55a.76.76,0,0,1-.24.58.84.84,0,0,1-.59.23.82.82,0,0,1-.61-.23.79.79,0,0,1-.23-.58V881.2h-5.59a.81.81,0,0,1-.58-.21.74.74,0,0,1-.23-.57.71.71,0,0,1,.23-.54.81.81,0,0,1,.58-.22h12.85A.81.81,0,0,1,616.16,879.88Z" transform="translate(-404 -347.5)"/><path class="cls-10" d="M629.73,886.18a6.21,6.21,0,0,1,1.19,3.93v7.64a.81.81,0,1,1-1.62,0v-7.64a4.56,4.56,0,0,0-.84-2.85,3.09,3.09,0,0,0-2.62-1.09,4.65,4.65,0,0,0-3.78,2,3.39,3.39,0,0,0-.62,2v7.64a.81.81,0,1,1-1.62,0V879.39a.81.81,0,1,1,1.62,0v7.91a5.65,5.65,0,0,1,2-1.9,5.27,5.27,0,0,1,2.65-.74A4.3,4.3,0,0,1,629.73,886.18Z" transform="translate(-404 -347.5)"/><path class="cls-10" d="M647,891.42a.8.8,0,0,1-.57.23H636.18a6.23,6.23,0,0,0,.66,2.9,5,5,0,0,0,1.89,2,5.49,5.49,0,0,0,2.9.74,4.92,4.92,0,0,0,2.32-.54,4.78,4.78,0,0,0,1.65-1.38.91.91,0,0,1,.57-.24.74.74,0,0,1,.7.7.8.8,0,0,1-.27.57,6.77,6.77,0,0,1-2.17,1.73,6,6,0,0,1-2.77.67,7.4,7.4,0,0,1-3.67-.89,6.32,6.32,0,0,1-2.48-2.5,7.53,7.53,0,0,1-.89-3.71,8.18,8.18,0,0,1,.88-3.87,6.32,6.32,0,0,1,2.34-2.54,5.91,5.91,0,0,1,3.1-.88,6.36,6.36,0,0,1,3,.76,6,6,0,0,1,2.31,2.21,6.67,6.67,0,0,1,.92,3.46A.74.74,0,0,1,647,891.42ZM638,887.08a5,5,0,0,0-1.71,3.11h9.21V890a4.26,4.26,0,0,0-.81-2.12,4.39,4.39,0,0,0-1.69-1.38,4.9,4.9,0,0,0-2.09-.47A4.53,4.53,0,0,0,638,887.08Z" transform="translate(-404 -347.5)"/><path class="cls-10" d="M670.09,891.42a.8.8,0,0,1-.57.23H659.32a6.23,6.23,0,0,0,.66,2.9,5,5,0,0,0,1.89,2,5.49,5.49,0,0,0,2.9.74,4.92,4.92,0,0,0,2.32-.54,4.78,4.78,0,0,0,1.65-1.38.91.91,0,0,1,.57-.24.74.74,0,0,1,.7.7.8.8,0,0,1-.27.57,6.77,6.77,0,0,1-2.17,1.73,6,6,0,0,1-2.77.67,7.4,7.4,0,0,1-3.67-.89,6.32,6.32,0,0,1-2.48-2.5,7.53,7.53,0,0,1-.89-3.71,8.18,8.18,0,0,1,.88-3.87,6.32,6.32,0,0,1,2.34-2.54,5.91,5.91,0,0,1,3.1-.88,6.36,6.36,0,0,1,3,.76,6,6,0,0,1,2.31,2.21,6.67,6.67,0,0,1,.92,3.46A.74.74,0,0,1,670.09,891.42Zm-8.92-4.33a5,5,0,0,0-1.71,3.11h9.21V890a4.26,4.26,0,0,0-.81-2.12,4.39,4.39,0,0,0-1.69-1.38,4.9,4.9,0,0,0-2.09-.47A4.53,4.53,0,0,0,661.17,887.08Z" transform="translate(-404 -347.5)"/><path class="cls-10" d="M686,885a.83.83,0,0,1,.23.59v12.15a.81.81,0,1,1-1.62,0v-1.81a5.66,5.66,0,0,1-2,2.05,5.47,5.47,0,0,1-2.94.84,5.82,5.82,0,0,1-3.25-.94,6.5,6.5,0,0,1-2.27-2.59,8.15,8.15,0,0,1-.82-3.7,8,8,0,0,1,.84-3.69,6.42,6.42,0,0,1,2.28-2.55,6,6,0,0,1,6.17-.13,5.17,5.17,0,0,1,2,2.05V885.6a.83.83,0,0,1,.23-.59.81.81,0,0,1,1.16,0Zm-3.67,11.57a5,5,0,0,0,1.75-2.05,6.63,6.63,0,0,0,.63-2.93,6.43,6.43,0,0,0-.63-2.86,5,5,0,0,0-1.75-2,4.46,4.46,0,0,0-2.52-.74,4.53,4.53,0,0,0-2.52.73,5,5,0,0,0-1.75,2,6.45,6.45,0,0,0-.63,2.9,6.74,6.74,0,0,0,.62,2.93,4.92,4.92,0,0,0,1.74,2.05,4.71,4.71,0,0,0,5.08,0Z" transform="translate(-404 -347.5)"/><path class="cls-10" d="M689.8,895.78a.89.89,0,0,1,.78-.7.83.83,0,0,1,.59.27,5,5,0,0,0,4.24,2.11,4.11,4.11,0,0,0,2.25-.61,2,2,0,0,0,1-1.77,1.88,1.88,0,0,0-.89-1.7,8.76,8.76,0,0,0-2.48-1,10.49,10.49,0,0,1-3.51-1.47,3.06,3.06,0,0,1-1.27-2.66,3.35,3.35,0,0,1,.62-2,4.1,4.1,0,0,1,1.69-1.36,5.76,5.76,0,0,1,2.42-.49,6.55,6.55,0,0,1,2.34.45,4.92,4.92,0,0,1,2,1.42.65.65,0,0,1,.24.54.74.74,0,0,1-.27.57.72.72,0,0,1-.49.16.67.67,0,0,1-.49-.22,4.25,4.25,0,0,0-1.54-1.11,4.86,4.86,0,0,0-1.92-.38,3.87,3.87,0,0,0-2.17.59,2,2,0,0,0-.9,1.78,1.94,1.94,0,0,0,1,1.65,10.4,10.4,0,0,0,2.74,1,13,13,0,0,1,2.32.78,3.89,3.89,0,0,1,1.5,1.21,3.41,3.41,0,0,1,.58,2.08,3.3,3.3,0,0,1-1.4,2.79,5.69,5.69,0,0,1-3.48,1,6.33,6.33,0,0,1-5.24-2.46A1.2,1.2,0,0,1,689.8,895.78Z" transform="translate(-404 -347.5)"/><path class="cls-10" d="M703.76,882.45a.92.92,0,0,1-.3-.74v-.27a.91.91,0,0,1,.31-.74,1.29,1.29,0,0,1,.85-.26q1.08,0,1.08,1v.27a1,1,0,0,1-.28.74,1.18,1.18,0,0,1-.82.26A1.24,1.24,0,0,1,703.76,882.45Zm1.42,15.88a.81.81,0,0,1-1.39-.58V885.33a.81.81,0,1,1,1.62,0v12.42A.79.79,0,0,1,705.18,898.33Z" transform="translate(-404 -347.5)"/><path class="cls-10" d="M721.42,891.42a.8.8,0,0,1-.57.23H710.65a6.23,6.23,0,0,0,.66,2.9,5,5,0,0,0,1.89,2,5.49,5.49,0,0,0,2.9.74,4.92,4.92,0,0,0,2.32-.54,4.78,4.78,0,0,0,1.65-1.38.91.91,0,0,1,.57-.24.74.74,0,0,1,.7.7.8.8,0,0,1-.27.57,6.77,6.77,0,0,1-2.17,1.73,6,6,0,0,1-2.77.67,7.4,7.4,0,0,1-3.67-.89,6.32,6.32,0,0,1-2.48-2.5,7.53,7.53,0,0,1-.89-3.71,8.18,8.18,0,0,1,.88-3.87,6.32,6.32,0,0,1,2.34-2.54,5.91,5.91,0,0,1,3.1-.88,6.36,6.36,0,0,1,3,.76,6,6,0,0,1,2.31,2.21,6.67,6.67,0,0,1,.92,3.46A.74.74,0,0,1,721.42,891.42Zm-8.92-4.33a5,5,0,0,0-1.71,3.11H720V890a4.26,4.26,0,0,0-.81-2.12,4.39,4.39,0,0,0-1.69-1.38,4.9,4.9,0,0,0-2.09-.47A4.53,4.53,0,0,0,712.5,887.08Z" transform="translate(-404 -347.5)"/><path class="cls-10" d="M724.39,895.78a.89.89,0,0,1,.78-.7.83.83,0,0,1,.59.27,5,5,0,0,0,4.24,2.11,4.11,4.11,0,0,0,2.25-.61,2,2,0,0,0,1-1.77,1.88,1.88,0,0,0-.89-1.7,8.76,8.76,0,0,0-2.48-1,10.49,10.49,0,0,1-3.51-1.47,3.06,3.06,0,0,1-1.27-2.66,3.35,3.35,0,0,1,.62-2,4.1,4.1,0,0,1,1.69-1.36,5.76,5.76,0,0,1,2.42-.49,6.55,6.55,0,0,1,2.34.45,4.92,4.92,0,0,1,2,1.42.65.65,0,0,1,.24.54.74.74,0,0,1-.27.57.72.72,0,0,1-.49.16.67.67,0,0,1-.49-.22,4.25,4.25,0,0,0-1.54-1.11,4.86,4.86,0,0,0-1.92-.38,3.87,3.87,0,0,0-2.17.59,2,2,0,0,0-.9,1.78,1.94,1.94,0,0,0,1,1.65,10.4,10.4,0,0,0,2.74,1,13,13,0,0,1,2.32.78,3.89,3.89,0,0,1,1.5,1.21,3.41,3.41,0,0,1,.58,2.08,3.3,3.3,0,0,1-1.4,2.79,5.69,5.69,0,0,1-3.48,1,6.33,6.33,0,0,1-5.24-2.46A1.2,1.2,0,0,1,724.39,895.78Z" transform="translate(-404 -347.5)"/><path class="cls-10" d="M741.13,886.33v9a1.93,1.93,0,0,0,.38,1.39,1.38,1.38,0,0,0,1,.37,1.58,1.58,0,0,0,.41-.07,1.53,1.53,0,0,1,.38-.07.54.54,0,0,1,.42.2.7.7,0,0,1,.18.47.74.74,0,0,1-.43.63,2,2,0,0,1-1,.26,5.63,5.63,0,0,1-1.3-.13,2.05,2.05,0,0,1-1.09-.81,3.53,3.53,0,0,1-.53-2.16v-9.12h-2a.78.78,0,0,1-.55-.22.75.75,0,0,1,0-1.08.78.78,0,0,1,.55-.21h2v-3a.81.81,0,1,1,1.62,0v3h2.7a.71.71,0,0,1,.53.24.77.77,0,0,1,.23.54.69.69,0,0,1-.22.53.76.76,0,0,1-.54.2Z" transform="translate(-404 -347.5)"/><path class="cls-10" d="M772.68,884.68a.78.78,0,0,1,.23.59s0,.13-.08.35L768.67,898a1.14,1.14,0,0,1-.35.39.66.66,0,0,1-.46.12.72.72,0,0,1-.43-.13.89.89,0,0,1-.3-.38l-3.54-8.32L760.43,898a1,1,0,0,1-.31.36.69.69,0,0,1-.42.15.75.75,0,0,1-.5-.12.74.74,0,0,1-.31-.39l-4.27-12.42a.78.78,0,0,1-.08-.35.76.76,0,0,1,.24-.58.83.83,0,0,1,.59-.23.74.74,0,0,1,.45.15.78.78,0,0,1,.28.39l3.59,10.77,3.21-8.07a.74.74,0,0,1,.76-.51.76.76,0,0,1,.76.51l3.38,8L771.34,885a.71.71,0,0,1,.76-.54A.81.81,0,0,1,772.68,884.68Z" transform="translate(-404 -347.5)"/><path class="cls-10" d="M788.28,885a.83.83,0,0,1,.23.59v12.15a.81.81,0,1,1-1.62,0v-1.81a5.66,5.66,0,0,1-2,2.05,5.47,5.47,0,0,1-2.94.84,5.82,5.82,0,0,1-3.25-.94,6.5,6.5,0,0,1-2.27-2.59,8.15,8.15,0,0,1-.82-3.7,8,8,0,0,1,.84-3.69,6.42,6.42,0,0,1,2.28-2.55,6,6,0,0,1,6.17-.13,5.17,5.17,0,0,1,2,2.05V885.6a.83.83,0,0,1,.23-.59.81.81,0,0,1,1.16,0Zm-3.67,11.57a5,5,0,0,0,1.75-2.05,6.63,6.63,0,0,0,.63-2.93,6.43,6.43,0,0,0-.63-2.86,5,5,0,0,0-1.75-2,4.46,4.46,0,0,0-2.52-.74,4.53,4.53,0,0,0-2.52.73,5,5,0,0,0-1.75,2,6.45,6.45,0,0,0-.63,2.9,6.74,6.74,0,0,0,.62,2.93,4.92,4.92,0,0,0,1.74,2.05,4.71,4.71,0,0,0,5.08,0Z" transform="translate(-404 -347.5)"/><path class="cls-10" d="M803.67,884.75a.79.79,0,0,1,.23.58v11.91a7.42,7.42,0,0,1-.84,3.64,5.59,5.59,0,0,1-2.32,2.29,7.07,7.07,0,0,1-3.35.78,8.83,8.83,0,0,1-2.12-.24,5.63,5.63,0,0,1-1.63-.65,1,1,0,0,1-.57-.78,1.57,1.57,0,0,1,.05-.27.74.74,0,0,1,.27-.41.68.68,0,0,1,.4-.13.71.71,0,0,1,.32.08,6.89,6.89,0,0,0,3.29.95,4.62,4.62,0,0,0,3.55-1.4,5.4,5.4,0,0,0,1.31-3.83v-.95a5,5,0,0,1-1.94,1.82,5.68,5.68,0,0,1-2.75.69,4.46,4.46,0,0,1-3.56-1.4,5.62,5.62,0,0,1-1.22-3.81v-8.29a.81.81,0,1,1,1.62,0v8a4.43,4.43,0,0,0,.85,2.94,3.3,3.3,0,0,0,2.66,1,4.35,4.35,0,0,0,2.12-.55,4.53,4.53,0,0,0,1.62-1.46,3.39,3.39,0,0,0,.61-1.93v-8a.82.82,0,0,1,1.39-.58Z" transform="translate(-404 -347.5)"/><path class="cls-10" d="M819,886.33v9a1.93,1.93,0,0,0,.38,1.39,1.38,1.38,0,0,0,1,.37,1.58,1.58,0,0,0,.41-.07,1.53,1.53,0,0,1,.38-.07.54.54,0,0,1,.42.2.7.7,0,0,1,.18.47.74.74,0,0,1-.43.63,2,2,0,0,1-1,.26,5.63,5.63,0,0,1-1.3-.13,2.05,2.05,0,0,1-1.09-.81,3.53,3.53,0,0,1-.53-2.16v-9.12h-2a.78.78,0,0,1-.55-.22.75.75,0,0,1,0-1.08.78.78,0,0,1,.55-.21h2v-3a.81.81,0,1,1,1.62,0v3h2.7a.71.71,0,0,1,.53.24.77.77,0,0,1,.23.54.69.69,0,0,1-.22.53.76.76,0,0,1-.54.2Z" transform="translate(-404 -347.5)"/><path class="cls-10" d="M837.52,895.32a6.57,6.57,0,0,1-2.46,2.58,7,7,0,0,1-7,0,6.58,6.58,0,0,1-2.46-2.58,8,8,0,0,1,0-7.34,6.69,6.69,0,0,1,2.46-2.59,6.73,6.73,0,0,1,9.42,2.59,8,8,0,0,1,0,7.34Zm-1.4-6.59a5.13,5.13,0,0,0-1.88-2,5,5,0,0,0-2.66-.74,4.88,4.88,0,0,0-2.65.74,5.26,5.26,0,0,0-1.88,2,6.12,6.12,0,0,0-.69,2.92,6.06,6.06,0,0,0,.69,2.89,5.25,5.25,0,0,0,1.88,2,4.88,4.88,0,0,0,2.65.74,5,5,0,0,0,4.54-2.75,6.64,6.64,0,0,0,0-5.83Z" transform="translate(-404 -347.5)"/><path class="cls-1" d="M851.92,898.18a9.66,9.66,0,0,1-2.9-2,.82.82,0,0,1-.32-.65.84.84,0,0,1,.26-.59.78.78,0,0,1,.58-.27.83.83,0,0,1,.59.27,6.81,6.81,0,0,0,5.27,2.32,5.41,5.41,0,0,0,3.23-.92,2.83,2.83,0,0,0,1.28-2.4,2.94,2.94,0,0,0-.63-1.93,4.74,4.74,0,0,0-1.66-1.26,22,22,0,0,0-2.62-1,16,16,0,0,1-2.9-1.13,5.32,5.32,0,0,1-1.9-1.66,4.48,4.48,0,0,1-.73-2.63,4.34,4.34,0,0,1,.77-2.54,5.17,5.17,0,0,1,2.16-1.74,7.65,7.65,0,0,1,3.2-.63,8.57,8.57,0,0,1,3.09.55,5.54,5.54,0,0,1,2.31,1.58,1.31,1.31,0,0,1,.41.78.76.76,0,0,1-.27.55.85.85,0,0,1-.59.26.62.62,0,0,1-.46-.19,5.32,5.32,0,0,0-1.94-1.4,6.19,6.19,0,0,0-2.54-.54,5.45,5.45,0,0,0-3.21.88,3,3,0,0,0-.05,4.79,12.66,12.66,0,0,0,3.4,1.54,20.61,20.61,0,0,1,3.13,1.16,5.16,5.16,0,0,1,2,1.69,4.9,4.9,0,0,1,.77,2.88,4.21,4.21,0,0,1-.8,2.5,5.39,5.39,0,0,1-2.21,1.77,7.69,7.69,0,0,1-3.23.65A8.61,8.61,0,0,1,851.92,898.18Z" transform="translate(-404 -347.5)"/><path class="cls-1" d="M877.11,897.21a.8.8,0,0,1,.23.57.75.75,0,0,1-.23.57.81.81,0,0,1-.58.21h-9.91a.78.78,0,0,1-.81-.81V880.47a.79.79,0,0,1,.81-.81h9.91a.79.79,0,0,1,.81.81.74.74,0,0,1-.23.57.81.81,0,0,1-.58.22h-9V888h7.8a.78.78,0,0,1,.81.81.74.74,0,0,1-.23.57.81.81,0,0,1-.58.22h-7.8V897h9A.76.76,0,0,1,877.11,897.21Z" transform="translate(-404 -347.5)"/><path class="cls-1" d="M895.73,881.74a1,1,0,0,1-.19.54.76.76,0,0,1-.62.3.79.79,0,0,1-.43-.13,8.39,8.39,0,0,0-4.73-1.43,7.74,7.74,0,0,0-4,1,7.31,7.31,0,0,0-2.78,2.88,9.27,9.27,0,0,0,0,8.45,7.3,7.3,0,0,0,2.79,2.86,7.76,7.76,0,0,0,3.93,1,8.37,8.37,0,0,0,4.7-1.4.85.85,0,0,1,.46-.13.74.74,0,0,1,.62.32.75.75,0,0,1,.19.51.7.7,0,0,1-.38.65,9.92,9.92,0,0,1-2.59,1.18,10.2,10.2,0,0,1-3,.47A9.45,9.45,0,0,1,885,897.6a9.11,9.11,0,0,1-3.46-3.44,10.44,10.44,0,0,1,0-10,9.23,9.23,0,0,1,3.43-3.48,9.33,9.33,0,0,1,4.78-1.26,10.3,10.3,0,0,1,3,.43,9.53,9.53,0,0,1,2.61,1.21A.75.75,0,0,1,895.73,881.74Z" transform="translate(-404 -347.5)"/><path class="cls-1" d="M913.48,879.89a.79.79,0,0,1,.23.58v11.18a7.15,7.15,0,0,1-.94,3.62,7.08,7.08,0,0,1-12.29,0,7.14,7.14,0,0,1-.94-3.62V880.47a.79.79,0,0,1,.23-.58.86.86,0,0,1,.63-.23.8.8,0,0,1,.57.23.77.77,0,0,1,.24.58v11.18a5.52,5.52,0,0,0,2.71,4.79,5.38,5.38,0,0,0,5.45,0,5.56,5.56,0,0,0,2-2,5.4,5.4,0,0,0,.74-2.78V880.47a.81.81,0,0,1,.22-.58.75.75,0,0,1,.57-.23A.79.79,0,0,1,913.48,879.89Z" transform="translate(-404 -347.5)"/><path class="cls-1" d="M933.37,897.78a.84.84,0,0,1-.11.35.78.78,0,0,1-.3.3.8.8,0,0,1-.4.11.91.91,0,0,1-.46-.11,3,3,0,0,1-1.22-1.4,7.73,7.73,0,0,1-.46-3.1,3.08,3.08,0,0,0-1.05-2.66,4.14,4.14,0,0,0-2.51-.77h-6v7.26a.81.81,0,0,1-.22.58.74.74,0,0,1-.57.23,1,1,0,0,1-.65-.23.73.73,0,0,1-.27-.58V880.47a.79.79,0,0,1,.81-.81h7.29a5.66,5.66,0,0,1,2.75.66,4.89,4.89,0,0,1,1.9,1.82,5,5,0,0,1,.69,2.62,5.21,5.21,0,0,1-.9,3,4.56,4.56,0,0,1-2.36,1.8,4.12,4.12,0,0,1,1.94,1.55,4.71,4.71,0,0,1,.78,2.66,9.85,9.85,0,0,0,.23,2.35,1.55,1.55,0,0,0,.66.95A.79.79,0,0,1,933.37,897.78Zm-6-8.77a3.7,3.7,0,0,0,1.75-.62,3.92,3.92,0,0,0,1.3-1.46,4.43,4.43,0,0,0,.49-2.11,3.42,3.42,0,0,0-1-2.55,3.73,3.73,0,0,0-2.71-1h-6.26V889Z" transform="translate(-404 -347.5)"/><path class="cls-1" d="M948.93,897.21a.8.8,0,0,1,.23.57.75.75,0,0,1-.23.57.81.81,0,0,1-.58.21h-9.91a.78.78,0,0,1-.81-.81V880.47a.79.79,0,0,1,.81-.81h9.91a.79.79,0,0,1,.81.81.74.74,0,0,1-.23.57.81.81,0,0,1-.58.22h-9V888h7.8a.78.78,0,0,1,.81.81.74.74,0,0,1-.23.57.81.81,0,0,1-.58.22h-7.8V897h9A.76.76,0,0,1,948.93,897.21Z" transform="translate(-404 -347.5)"/><path class="cls-1" d="M964.38,897.18a.74.74,0,0,1,.23.57.78.78,0,0,1-.81.81h-9.64a.78.78,0,0,1-.81-.81V880.47a.77.77,0,0,1,.24-.58.87.87,0,0,1,.62-.23.84.84,0,0,1,.59.23.76.76,0,0,1,.24.58V897h8.75A.82.82,0,0,1,964.38,897.18Z" transform="translate(-404 -347.5)"/><path class="cls-1" d="M978.38,880.88l-6,8.29v8.59a.76.76,0,0,1-.24.58.84.84,0,0,1-.59.23.78.78,0,0,1-.81-.81v-8.56l-6-8.26a.83.83,0,0,1-.22-.57.74.74,0,0,1,.27-.57.87.87,0,0,1,.59-.24.76.76,0,0,1,.67.38l5.59,7.61,5.45-7.61a.88.88,0,0,1,.7-.38.76.76,0,0,1,.57.26.8.8,0,0,1,.24.55A1.27,1.27,0,0,1,978.38,880.88Z" transform="translate(-404 -347.5)"/><path class="cls-10" d="M988.28,895.78a.89.89,0,0,1,.78-.7.83.83,0,0,1,.59.27,5.05,5.05,0,0,0,4.24,2.11,4.11,4.11,0,0,0,2.25-.61,2,2,0,0,0,1-1.77,1.88,1.88,0,0,0-.89-1.7,8.78,8.78,0,0,0-2.48-1,10.49,10.49,0,0,1-3.51-1.47,3.06,3.06,0,0,1-1.27-2.66,3.36,3.36,0,0,1,.62-2,4.11,4.11,0,0,1,1.69-1.36,5.76,5.76,0,0,1,2.42-.49,6.55,6.55,0,0,1,2.33.45,4.92,4.92,0,0,1,2,1.42.65.65,0,0,1,.24.54.74.74,0,0,1-.27.57.72.72,0,0,1-.49.16.67.67,0,0,1-.49-.22,4.25,4.25,0,0,0-1.54-1.11,4.86,4.86,0,0,0-1.92-.38,3.86,3.86,0,0,0-2.17.59,2,2,0,0,0-.91,1.78,1.94,1.94,0,0,0,1,1.65,10.38,10.38,0,0,0,2.74,1,13,13,0,0,1,2.32.78,3.9,3.9,0,0,1,1.5,1.21,3.41,3.41,0,0,1,.58,2.08,3.3,3.3,0,0,1-1.4,2.79,5.69,5.69,0,0,1-3.48,1,6.33,6.33,0,0,1-5.24-2.46A1.21,1.21,0,0,1,988.28,895.78Z" transform="translate(-404 -347.5)"/><path class="cls-10" d="M1012.23,886.18a6.21,6.21,0,0,1,1.19,3.93v7.64a.81.81,0,1,1-1.62,0v-7.64a4.56,4.56,0,0,0-.84-2.85,3.09,3.09,0,0,0-2.62-1.09,4.65,4.65,0,0,0-3.78,2,3.39,3.39,0,0,0-.62,2v7.64a.81.81,0,1,1-1.62,0V879.39a.81.81,0,1,1,1.62,0v7.91a5.66,5.66,0,0,1,2-1.9,5.27,5.27,0,0,1,2.65-.74A4.3,4.3,0,0,1,1012.23,886.18Z" transform="translate(-404 -347.5)"/><path class="cls-10" d="M1018,882.45a.92.92,0,0,1-.3-.74v-.27a.91.91,0,0,1,.31-.74,1.29,1.29,0,0,1,.85-.26q1.08,0,1.08,1v.27a1,1,0,0,1-.28.74,1.19,1.19,0,0,1-.82.26A1.24,1.24,0,0,1,1018,882.45Zm1.42,15.88a.81.81,0,0,1-1.39-.58V885.33a.81.81,0,1,1,1.62,0v12.42A.79.79,0,0,1,1019.37,898.33Z" transform="translate(-404 -347.5)"/><path class="cls-10" d="M1034,885.56a6.23,6.23,0,0,1,2.28,2.51,8.36,8.36,0,0,1,0,7.23,6.36,6.36,0,0,1-2.27,2.53,5.89,5.89,0,0,1-3.23.92,5.74,5.74,0,0,1-2.87-.74,5.83,5.83,0,0,1-2.09-2v7.13a.81.81,0,1,1-1.62,0v-17.6a.83.83,0,0,1,.23-.59.82.82,0,0,1,1.16,0,.83.83,0,0,1,.23.59v1.84a5,5,0,0,1,2-2,5.94,5.94,0,0,1,2.92-.73A6,6,0,0,1,1034,885.56Zm-.85,11a4.91,4.91,0,0,0,1.75-2,6.32,6.32,0,0,0,.63-2.86,6.18,6.18,0,0,0-.63-2.82,4.93,4.93,0,0,0-1.75-2,4.6,4.6,0,0,0-2.53-.71,4.78,4.78,0,0,0-2.56.7,4.7,4.7,0,0,0-1.75,2,6.33,6.33,0,0,0-.62,2.85,6.42,6.42,0,0,0,.62,2.86,4.77,4.77,0,0,0,1.75,2,4.71,4.71,0,0,0,2.56.71A4.6,4.6,0,0,0,1033.14,896.52Z" transform="translate(-404 -347.5)"/><path class="cls-10" d="M1060.36,885a.83.83,0,0,1,.23.59v12.15a.81.81,0,1,1-1.62,0v-1.81a5.66,5.66,0,0,1-2,2.05,5.47,5.47,0,0,1-2.94.84,5.82,5.82,0,0,1-3.25-.94,6.5,6.5,0,0,1-2.27-2.59,8.16,8.16,0,0,1-.82-3.7,8,8,0,0,1,.84-3.69,6.41,6.41,0,0,1,2.28-2.55,6,6,0,0,1,6.17-.13,5.17,5.17,0,0,1,2,2.05V885.6a.83.83,0,0,1,.23-.59.81.81,0,0,1,1.16,0Zm-3.67,11.57a5,5,0,0,0,1.76-2.05,6.65,6.65,0,0,0,.63-2.93,6.44,6.44,0,0,0-.63-2.86,5.05,5.05,0,0,0-1.76-2,4.46,4.46,0,0,0-2.52-.74,4.53,4.53,0,0,0-2.52.73,5,5,0,0,0-1.75,2,6.46,6.46,0,0,0-.63,2.9,6.75,6.75,0,0,0,.62,2.93,4.93,4.93,0,0,0,1.74,2.05,4.71,4.71,0,0,0,5.08,0Z" transform="translate(-404 -347.5)"/><path class="cls-10" d="M1082.75,885.56a6.23,6.23,0,0,1,2.28,2.51,8.36,8.36,0,0,1,0,7.23,6.36,6.36,0,0,1-2.27,2.53,5.89,5.89,0,0,1-3.23.92,5.74,5.74,0,0,1-2.87-.74,5.83,5.83,0,0,1-2.09-2v7.13a.81.81,0,1,1-1.62,0v-17.6a.83.83,0,0,1,.23-.59.82.82,0,0,1,1.16,0,.83.83,0,0,1,.23.59v1.84a5,5,0,0,1,2-2,5.94,5.94,0,0,1,2.92-.73A6,6,0,0,1,1082.75,885.56Zm-.85,11a4.91,4.91,0,0,0,1.75-2,6.32,6.32,0,0,0,.63-2.86,6.18,6.18,0,0,0-.63-2.82,4.93,4.93,0,0,0-1.75-2,4.6,4.6,0,0,0-2.53-.71,4.78,4.78,0,0,0-2.56.7,4.7,4.7,0,0,0-1.75,2,6.33,6.33,0,0,0-.62,2.85,6.42,6.42,0,0,0,.62,2.86,4.77,4.77,0,0,0,1.75,2,4.71,4.71,0,0,0,2.56.71A4.6,4.6,0,0,0,1081.91,896.52Z" transform="translate(-404 -347.5)"/><path class="cls-10" d="M1101.37,885a.83.83,0,0,1,.23.59v12.15a.81.81,0,1,1-1.62,0v-1.81a5.66,5.66,0,0,1-2,2.05,5.47,5.47,0,0,1-2.94.84,5.82,5.82,0,0,1-3.25-.94,6.5,6.5,0,0,1-2.27-2.59,8.16,8.16,0,0,1-.82-3.7,8,8,0,0,1,.84-3.69,6.41,6.41,0,0,1,2.28-2.55,6,6,0,0,1,6.17-.13,5.17,5.17,0,0,1,2,2.05V885.6a.83.83,0,0,1,.23-.59.81.81,0,0,1,1.16,0Zm-3.67,11.57a5,5,0,0,0,1.76-2.05,6.65,6.65,0,0,0,.63-2.93,6.44,6.44,0,0,0-.63-2.86,5.05,5.05,0,0,0-1.76-2,4.46,4.46,0,0,0-2.52-.74,4.53,4.53,0,0,0-2.52.73,5,5,0,0,0-1.75,2,6.46,6.46,0,0,0-.63,2.9,6.75,6.75,0,0,0,.62,2.93,4.93,4.93,0,0,0,1.74,2.05,4.71,4.71,0,0,0,5.08,0Z" transform="translate(-404 -347.5)"/><path class="cls-10" d="M1114.55,884.72a5.18,5.18,0,0,1,1.75.77,1.34,1.34,0,0,1,.66,1.05.82.82,0,0,1-.2.54.63.63,0,0,1-.5.24.84.84,0,0,1-.45-.11,2.2,2.2,0,0,1-.39-.32,2.7,2.7,0,0,0-.67-.51,4.42,4.42,0,0,0-1.07-.31,7.76,7.76,0,0,0-1.42-.12,5.07,5.07,0,0,0-2.71.76,5.36,5.36,0,0,0-1.93,2.05,5.91,5.91,0,0,0-.7,2.86,6.21,6.21,0,0,0,.67,2.92,5.06,5.06,0,0,0,4.62,2.78,5.92,5.92,0,0,0,1.55-.16,5.77,5.77,0,0,0,1.15-.46,5.46,5.46,0,0,0,.65-.48,2.69,2.69,0,0,1,.38-.29.69.69,0,0,1,.35-.09.67.67,0,0,1,.51.2.74.74,0,0,1,.19.53,1.4,1.4,0,0,1-.65,1,5.64,5.64,0,0,1-1.78.9,7.9,7.9,0,0,1-2.51.38,6.64,6.64,0,0,1-3.51-.93,6.35,6.35,0,0,1-2.39-2.58,7.93,7.93,0,0,1-.85-3.7,7.59,7.59,0,0,1,.86-3.6,6.64,6.64,0,0,1,6-3.58A9.47,9.47,0,0,1,1114.55,884.72Z" transform="translate(-404 -347.5)"/><path class="cls-10" d="M1131.65,897.75a.71.71,0,0,1-.28.58.86.86,0,0,1-.53.23.74.74,0,0,1-.59-.3l-6-6.32-2,1.73v4.08a.81.81,0,1,1-1.62,0V879.39a.81.81,0,1,1,1.62,0V891.7l7.8-6.72a.74.74,0,0,1,.57-.27.73.73,0,0,1,.54.26.79.79,0,0,1,.24.55.88.88,0,0,1-.3.62l-5.56,4.72,5.86,6.27A.9.9,0,0,1,1131.65,897.75Z" transform="translate(-404 -347.5)"/><path class="cls-10" d="M1147,885a.83.83,0,0,1,.23.59v12.15a.81.81,0,1,1-1.62,0v-1.81a5.66,5.66,0,0,1-2,2.05,5.47,5.47,0,0,1-2.94.84,5.82,5.82,0,0,1-3.25-.94,6.5,6.5,0,0,1-2.27-2.59,8.16,8.16,0,0,1-.82-3.7,8,8,0,0,1,.84-3.69,6.41,6.41,0,0,1,2.28-2.55,6,6,0,0,1,6.17-.13,5.17,5.17,0,0,1,2,2.05V885.6a.83.83,0,0,1,.23-.59.81.81,0,0,1,1.16,0Zm-3.67,11.57a5,5,0,0,0,1.76-2.05,6.65,6.65,0,0,0,.63-2.93,6.44,6.44,0,0,0-.63-2.86,5.05,5.05,0,0,0-1.76-2,4.46,4.46,0,0,0-2.52-.74,4.53,4.53,0,0,0-2.52.73,5,5,0,0,0-1.75,2,6.46,6.46,0,0,0-.63,2.9,6.75,6.75,0,0,0,.62,2.93,4.93,4.93,0,0,0,1.74,2.05,4.71,4.71,0,0,0,5.08,0Z" transform="translate(-404 -347.5)"/><path class="cls-10" d="M1164.07,885a.82.82,0,0,1,.23.61v11.69a7,7,0,0,1-.88,3.6,5.8,5.8,0,0,1-2.4,2.28,7.55,7.55,0,0,1-3.5.78,8.71,8.71,0,0,1-2-.24,7.91,7.91,0,0,1-1.78-.62q-.74-.38-.85-.78a.59.59,0,0,1-.19-.43.5.5,0,0,1,.24-.43.45.45,0,0,1,.27-.08,2.08,2.08,0,0,1,.62.19l.57.24a8.72,8.72,0,0,0,3.13.65,5.09,5.09,0,0,0,3.77-1.36,5,5,0,0,0,1.36-3.69v-1.67a5,5,0,0,1-2.13,2.28,6.11,6.11,0,0,1-3.05.82,6.23,6.23,0,0,1-3.36-.93,6.54,6.54,0,0,1-2.36-2.58,8.29,8.29,0,0,1,0-7.37,6.55,6.55,0,0,1,2.36-2.58,6.19,6.19,0,0,1,3.33-.93,5.94,5.94,0,0,1,3.12.85,5.7,5.7,0,0,1,2.09,2V885.6a.83.83,0,0,1,.23-.59.76.76,0,0,1,.58-.24A.79.79,0,0,1,1164.07,885Zm-3.78,11.61a4.89,4.89,0,0,0,1.84-2,6.47,6.47,0,0,0,.66-3,6.38,6.38,0,0,0-.66-2.94,4.9,4.9,0,0,0-1.84-2,5,5,0,0,0-2.66-.72,4.82,4.82,0,0,0-2.63.74,5.09,5.09,0,0,0-1.84,2,6.69,6.69,0,0,0,0,5.8,5.08,5.08,0,0,0,1.84,2,4.81,4.81,0,0,0,2.63.74A5,5,0,0,0,1160.29,896.6Z" transform="translate(-404 -347.5)"/><path class="cls-10" d="M1179.82,891.42a.8.8,0,0,1-.57.23H1169a6.23,6.23,0,0,0,.66,2.9,5,5,0,0,0,1.89,2,5.5,5.5,0,0,0,2.9.74,4.91,4.91,0,0,0,2.32-.54,4.77,4.77,0,0,0,1.65-1.38.91.91,0,0,1,.57-.24.74.74,0,0,1,.7.7.8.8,0,0,1-.27.57,6.77,6.77,0,0,1-2.17,1.73,6,6,0,0,1-2.77.67,7.4,7.4,0,0,1-3.67-.89,6.31,6.31,0,0,1-2.48-2.5,7.52,7.52,0,0,1-.89-3.71,8.18,8.18,0,0,1,.88-3.87,6.31,6.31,0,0,1,2.33-2.54,5.92,5.92,0,0,1,3.11-.88,6.36,6.36,0,0,1,3,.76,6,6,0,0,1,2.31,2.21,6.67,6.67,0,0,1,.92,3.46A.73.73,0,0,1,1179.82,891.42Zm-8.92-4.33a5,5,0,0,0-1.71,3.11h9.21V890a4.26,4.26,0,0,0-.81-2.12,4.39,4.39,0,0,0-1.69-1.38,4.91,4.91,0,0,0-2.09-.47A4.53,4.53,0,0,0,1170.9,887.08Z" transform="translate(-404 -347.5)"/><path class="cls-10" d="M1183.3,898.28a1.14,1.14,0,0,1-.24-.77v-.57a1.09,1.09,0,0,1,.24-.76.89.89,0,0,1,.7-.27h.19a.9.9,0,0,1,.7.27,1.09,1.09,0,0,1,.24.76v.57a1.14,1.14,0,0,1-.24.77.87.87,0,0,1-.7.28H1184A.87.87,0,0,1,1183.3,898.28Z" transform="translate(-404 -347.5)"/><path class="cls-12" d="M566,915s-20-6.39-20-25.58V874.5l20-9.5" transform="translate(-404 -347.5)"/><path class="cls-12" d="M566,915s20-6.39,20-25.58V874.5L566,865" transform="translate(-404 -347.5)"/><polyline class="cls-12" points="153.05 543.61 158.32 549.17 170.95 535.83"/></svg>